HIERARCHY
ROOT Hips
{
	OFFSET 0.000000 0.000000 0.000000
	CHANNELS 6 Xposition Yposition Zposition Zrotation Yrotation Xrotation 
	JOINT LHipJoint
	{
		OFFSET 0.000000 0.000000 0.000000
		CHANNELS 3 Zrotation Yrotation Xrotation
		JOINT LeftUpLeg
		{
			OFFSET 1.363060 -1.794630 0.839290
			CHANNELS 3 Zrotation Yrotation Xrotation
			JOINT LeftLeg
			{
				OFFSET 2.448110 -6.726130 0.000000
				CHANNELS 3 Zrotation Yrotation Xrotation
				JOINT LeftFoot
				{
					OFFSET 2.562200 -7.039590 0.000000
					CHANNELS 3 Zrotation Yrotation Xrotation
					JOINT LeftToeBase
					{
						OFFSET 0.157640 -0.433110 2.322550
						CHANNELS 3 Zrotation Yrotation Xrotation
						End Site
						{
							OFFSET 0.000000 0.000000 0.000000
						}
					}
				}
			}
		}
	}
	JOINT RHipJoint
	{
		OFFSET 0.000000 0.000000 0.000000
		CHANNELS 3 Zrotation Yrotation Xrotation
		JOINT RightUpLeg
		{
			OFFSET -1.305520 -1.794630 0.839290
			CHANNELS 3 Zrotation Yrotation Xrotation
			JOINT RightLeg
			{
				OFFSET -2.542530 -6.985550 0.000000
				CHANNELS 3 Zrotation Yrotation Xrotation
				JOINT RightFoot
				{
					OFFSET -2.568260 -7.056230 0.000000
					CHANNELS 3 Zrotation Yrotation Xrotation
					JOINT RightToeBase
					{
						OFFSET -0.164730 -0.452590 2.363150
						CHANNELS 3 Zrotation Yrotation Xrotation
						End Site
						{
							OFFSET 0.000000 0.000000 0.000000
						}
					}
				}
			}
		}
	}
}
MOTION
Frames: 27
Frame Time: 0.008333
5.830321 16.361234 -2.873688 -163.615217 72.613997 -147.565310 -12.310410 0.129791 1.086971 -9.411538 -3.097997 -43.410432 1.058666 4.124322 75.071144 4.072611 21.078779 -26.007728 -6.473300 -0.000000 -0.730500 8.037331 -1.765275 1.204571 10.005796 3.193394 -22.442592 2.225799 -1.668342 37.098695 -1.686620 -2.925235 -20.505657 1.150900 -0.000000 -56.344900
6.055615 16.451043 -2.954928 -165.399832 72.139586 -149.209205 -12.006355 0.119765 1.362072 -9.899181 -3.479914 -44.039422 0.806943 3.904750 72.292383 4.125486 20.849388 -25.943239 -6.383101 -0.000000 -0.973400 8.188934 -1.847748 1.192776 9.397809 2.478617 -20.844135 2.214286 -1.506292 35.146358 -1.530415 -2.676036 -18.953414 0.945800 -0.000001 -57.764500
6.282074 16.548652 -3.042628 -166.955493 71.649453 -150.623532 -11.706991 0.119965 1.644379 -10.318376 -3.847786 -44.505650 0.550389 3.662283 69.152487 4.192902 20.667958 -25.791667 -6.271200 0.000000 -1.326299 8.329834 -1.947675 1.183595 8.820726 1.786675 -19.236505 2.186140 -1.352092 33.095564 -1.351310 -2.419934 -17.001517 0.715900 0.000000 -59.633200
6.507144 16.653541 -3.138460 -168.150457 71.120652 -151.729937 -11.433662 0.124641 1.915859 -10.597643 -4.173414 -44.742595 0.291236 3.401585 65.652916 4.261132 20.475849 -25.563722 -6.124800 0.000000 -1.768300 8.437023 -2.069618 1.151478 8.354007 1.121832 -17.528108 2.144399 -1.208712 30.904769 -1.159361 -2.205470 -14.590510 0.470400 -0.000000 -61.962399
6.734133 16.762807 -3.238360 -169.247484 70.608318 -152.717324 -11.156616 0.146812 2.200876 -10.866544 -4.490323 -44.831088 0.031378 3.112966 61.801976 4.329425 20.245792 -25.241067 -5.929400 0.000000 -2.250400 8.550810 -2.205429 1.132259 7.873499 0.484203 -15.904135 2.080055 -1.087366 28.723327 -0.957076 -1.992378 -11.786103 0.218900 -0.000000 -64.654500
6.960548 16.875309 -3.343619 -170.140505 70.089080 -153.531634 -10.895704 0.180912 2.482197 -11.067829 -4.772655 -44.712506 -0.227361 2.800357 57.614926 4.378860 19.908499 -24.810904 -5.664500 0.000000 -2.794200 8.650598 -2.357003 1.099375 7.447583 -0.131779 -14.280478 1.999203 -0.991104 26.530068 -0.756562 -1.809447 -8.571777 -0.027900 0.000000 -67.620100
7.185969 16.988993 -3.453507 -170.860455 69.566022 -154.211428 -10.653226 0.226779 2.757035 -11.215881 -5.015408 -44.382945 -0.483427 2.462392 53.117317 4.395274 19.417563 -24.248420 -5.315300 0.000000 -3.418599 8.737674 -2.520598 1.047940 7.072374 -0.733136 -12.669015 1.904613 -0.924595 24.374101 -0.567277 -1.647774 -4.991530 -0.257700 -0.000000 -70.705200
7.410029 17.101686 -3.567229 -171.446447 69.042161 -154.800884 -10.430853 0.283364 3.023228 -11.329650 -5.217078 -43.844307 -0.735228 2.097573 48.346137 4.366006 18.746150 -23.527232 -4.876600 0.000000 -4.154800 8.814664 -2.690561 0.973708 6.737699 -1.330584 -11.086292 1.799738 -0.890557 22.313185 -0.398193 -1.486615 -1.118717 -0.454299 0.000000 -73.722500
7.632423 17.211135 -3.683859 -171.937033 68.519681 -155.341878 -10.230190 0.348000 3.279007 -11.427312 -5.379747 -43.106763 -0.980703 1.705293 43.353806 4.281600 17.891599 -22.626849 -4.355900 -0.000000 -5.039400 8.884735 -2.859758 0.873757 6.430307 -1.934570 -9.550593 1.687884 -0.889018 20.409151 -0.257343 -1.298644 2.946118 -0.597100 -0.000000 -76.468000
7.852956 17.315313 -3.802543 -172.369459 68.000800 -155.874723 -10.052772 0.416337 3.521671 -11.523842 -5.508964 -42.184138 -1.217030 1.287139 38.210657 4.137904 16.878102 -21.541832 -3.775600 0.000000 -6.099500 8.951418 -3.019960 0.745668 6.134799 -2.556068 -8.077016 1.571635 -0.917143 18.722090 -0.150694 -1.053769 7.079145 -0.662300 0.000000 -78.750999
8.071484 17.412194 -3.922729 -172.745970 67.486104 -156.396822 -9.902742 0.480819 3.750313 -11.613849 -5.609826 -41.119467 -1.438858 0.849453 33.018850 3.936935 15.747549 -20.286564 -3.167000 0.000000 -7.381300 9.013332 -3.164714 0.594211 5.854601 -3.183428 -6.686159 1.453253 -0.968599 17.302698 -0.083272 -0.746248 11.141568 -0.634501 -0.000000 -80.416500
8.287775 17.500539 -4.043278 -173.120305 66.978477 -156.972862 -9.777069 0.536080 3.956211 -11.716335 -5.696484 -39.920377 -1.642058 0.402154 27.883636 3.689806 14.567346 -18.901241 -2.569600 0.000000 -8.872600 9.077451 -3.284873 0.414533 5.559127 -3.834852 -5.371090 1.332114 -1.037585 16.191762 -0.053943 -0.360133 14.991905 -0.501400 0.000000 -81.363000
8.501799 17.578959 -4.164273 -173.472724 66.474719 -157.575322 -9.677939 0.574902 4.137836 -11.812997 -5.777568 -38.653712 -1.819924 -0.037865 22.954700 3.413378 13.395335 -17.461307 -2.020000 -0.000000 -10.553699 9.139336 -3.377731 0.213807 5.262558 -4.496968 -4.146752 1.209694 -1.116134 15.415590 -0.060047 0.073062 18.496676 -0.278600 -0.000000 -81.514400
8.713575 17.645963 -4.287249 -173.702572 65.965597 -158.076852 -9.613848 0.591034 4.299916 -11.856398 -5.838432 -37.455666 -1.966282 -0.448485 18.424066 3.125153 12.251973 -16.080853 -1.548300 -0.000000 -12.385700 9.182018 -3.449226 0.012061 5.032543 -5.126425 -3.055538 1.090470 -1.195646 14.981862 -0.097320 0.462702 21.555359 -0.024400 0.000000 -81.008700
8.922930 17.702185 -4.408803 -173.939821 65.465468 -158.640897 -9.564815 0.589405 4.415790 -11.924313 -5.860986 -36.277775 -2.089169 -0.817274 14.369622 2.843828 11.181890 -14.835489 -1.170000 -0.000000 -14.288900 9.226152 -3.491643 -0.205004 4.789924 -5.758367 -2.047665 0.966921 -1.277208 14.900103 -0.157756 0.778616 24.078559 0.222900 0.000000 -79.866700
9.130092 17.746878 -4.530421 -174.107897 64.967416 -159.165503 -9.533231 0.572536 4.490322 -11.998687 -5.812782 -35.231098 -2.191657 -1.130687 10.925901 2.581732 10.170030 -13.828734 -0.892000 0.000000 -16.193701 9.260151 -3.513859 -0.420785 4.585862 -6.366698 -1.164184 0.841752 -1.357203 15.165886 -0.235862 0.917590 26.019066 0.383100 -0.000000 -78.210600
9.335200 17.779995 -4.651986 -174.213410 64.473454 -159.651797 -9.513172 0.546822 4.520947 -12.099411 -5.671141 -34.342231 -2.280583 -1.384666 8.142539 2.347704 9.215560 -13.112845 -0.708200 0.000000 -18.026800 9.285973 -3.519562 -0.632615 4.416939 -6.955574 -0.409320 0.712768 -1.435627 15.758445 -0.329113 0.801409 27.382348 0.392300 0.000000 -76.420301
9.538388 17.801478 -4.773716 -174.256940 63.987405 -160.092573 -9.501437 0.517695 4.512411 -12.226796 -5.437451 -33.615561 -2.358517 -1.580930 6.012853 2.148832 8.337811 -12.691602 -0.602900 -0.000000 -19.726300 9.305074 -3.511707 -0.839580 4.279790 -7.530131 0.205777 0.579359 -1.513568 16.671707 -0.435474 0.384936 28.164905 0.212100 0.000001 -74.439600
9.739660 17.811208 -4.895780 -174.241139 63.514527 -160.484344 -9.497338 0.488798 4.473239 -12.363562 -5.138838 -33.029544 -2.423209 -1.723674 4.484298 1.990896 7.579612 -12.519648 -0.554700 -0.000000 -21.243500 9.318905 -3.491850 -1.043141 4.167927 -8.093835 0.679360 0.441115 -1.591852 17.881489 -0.556710 -0.359248 28.406816 -0.172500 0.000000 -72.472800
9.939055 17.808908 -5.018534 -174.160195 63.060525 -160.816537 -9.503764 0.462688 4.410711 -12.484267 -4.799020 -32.561346 -2.471861 -1.815245 3.498015 1.873662 6.971118 -12.519578 -0.541800 0.000000 -22.552300 9.327088 -3.461528 -1.243541 4.081370 -8.641798 1.015800 0.298923 -1.670721 19.354792 -0.696531 -1.436207 28.168827 -0.752700 -0.000000 -70.615700
10.136583 17.794284 -5.142269 -174.009586 62.630642 -161.079653 -9.524429 0.440988 4.333395 -12.559953 -4.451647 -32.185216 -2.500436 -1.857520 2.985712 1.794520 6.540872 -12.592879 -0.544800 0.000000 -23.654900 9.329715 -3.421549 -1.441099 4.018068 -9.168857 1.218292 0.154801 -1.750268 21.061057 -0.858668 -2.821324 27.513148 -1.493600 0.000000 -68.975500
10.332386 17.767131 -5.266991 -173.805529 62.229806 -161.283044 -9.560413 0.425433 4.251816 -12.568212 -4.145005 -31.872557 -2.504853 -1.853005 2.872293 1.750128 6.316590 -12.633827 -0.547800 -0.000000 -24.573300 9.330356 -3.371397 -1.637377 3.963512 -9.677922 1.284301 0.011786 -1.831150 22.983720 -1.043625 -4.445976 26.479659 -2.329701 -0.000000 -67.334000
10.526631 17.727365 -5.392518 -173.562848 61.860421 -161.435674 -9.611996 0.418594 4.168262 -12.511587 -3.889944 -31.621447 -2.487800 -1.801285 3.125301 1.729215 6.270679 -12.558410 -0.537701 -0.000000 -25.342800 9.332120 -3.311846 -1.828509 3.909427 -10.156667 1.219084 -0.128279 -1.912891 25.082800 -1.253861 -6.255436 25.154373 -3.204500 0.000000 -65.861200
10.719568 17.675226 -5.518419 -173.318517 61.522566 -161.564491 -9.674382 0.423502 4.087614 -12.407387 -3.712939 -31.431110 -2.452289 -1.704419 3.712061 1.723331 6.378524 -12.304699 -0.504000 -0.000000 -25.983900 9.342595 -3.242663 -2.011704 3.831057 -10.603791 1.016947 -0.263138 -1.996032 27.339022 -1.486164 -8.161392 23.589568 -4.046101 0.000000 -64.434601
10.911603 17.611232 -5.643745 -173.124009 61.214169 -161.708959 -9.739143 0.443568 4.011792 -12.292026 -3.627513 -31.315466 -2.404607 -1.564853 4.622772 1.723708 6.594973 -11.848424 -0.439301 -0.000000 -26.485300 9.371151 -3.163538 -2.181900 3.701152 -11.014721 0.670186 -0.391647 -2.081172 29.732560 -1.734912 -10.079069 21.844254 -4.792700 0.000000 -63.037700
11.103166 17.536318 -5.767321 -173.041154 60.931217 -161.916276 -9.794838 0.481945 3.941440 -12.215468 -3.641166 -31.298186 -2.352485 -1.386004 5.863981 1.723675 6.867643 -11.207796 -0.342400 -0.000000 -26.787900 9.428144 -3.073974 -2.332784 3.490202 -11.383882 0.168064 -0.513217 -2.169231 32.247617 -1.991043 -11.924737 19.969800 -5.393100 0.000000 -61.626400
11.294528 17.451747 -5.887957 -173.125604 60.666432 -162.228885 -9.829445 0.540478 3.876429 -12.232046 -3.755750 -31.407335 -2.303002 -1.172051 7.452608 1.719675 7.146535 -10.442722 -0.220301 0.000000 -26.781000 9.522672 -2.973551 -2.457676 3.171208 -11.705294 -0.500360 -0.627740 -2.261471 34.870889 -2.243429 -13.624666 18.014738 -5.812600 0.000000 -60.249000
